<svg width="183" height="58" viewBox="0 0 183 58" fill="none" xmlns="http://www.w3.org/2000/svg">
<g clip-path="url(#clip0_678_1581)">
<path d="M60.5917 51.7985H61.7288V51.9065L59.6053 55.1105V57.4117H58.5897V55.1203L56.4709 51.9065V51.7985H57.6081L59.0902 54.2028L60.5917 51.7985Z" fill="#221F20"/>
<path d="M63.2498 56.6708C63.5025 56.6855 63.7537 56.6233 63.971 56.4922C64.1882 56.361 64.3615 56.167 64.4683 55.9353C64.5751 55.7036 64.6105 55.4448 64.5699 55.1926C64.5293 54.9403 64.4145 54.7062 64.2405 54.5205C64.0666 54.3349 63.8415 54.2062 63.5943 54.1513C63.3471 54.0964 63.0893 54.1177 62.8542 54.2124C62.6192 54.3072 62.4177 54.4711 62.276 54.6828C62.1342 54.8946 62.0587 55.1444 62.0592 55.4C62.0527 55.5629 62.0786 55.7254 62.1353 55.878C62.192 56.0307 62.2783 56.1703 62.3893 56.2888C62.5002 56.4072 62.6335 56.502 62.7813 56.5676C62.9291 56.6332 63.0883 56.6683 63.2498 56.6708ZM63.2498 53.2803C63.6613 53.2957 64.0593 53.433 64.3942 53.6751C64.729 53.9172 64.986 54.2533 65.133 54.6417C65.2801 55.0302 65.3106 55.4537 65.2211 55.8595C65.1315 56.2654 64.9257 56.6357 64.6293 56.9243C64.3328 57.213 63.9588 57.4072 63.5538 57.4828C63.1489 57.5584 62.7309 57.5121 62.3518 57.3496C61.9727 57.1872 61.6493 56.9157 61.4219 56.569C61.1945 56.2223 61.073 55.8158 61.0728 55.4C61.0905 54.8299 61.328 54.2893 61.7346 53.8934C62.1413 53.4974 62.6849 53.2775 63.2498 53.2803Z" fill="#221F20"/>
<path d="M69.7761 57.4117H68.8042V56.7297C68.6894 56.9736 68.5049 57.1772 68.2746 57.3145C68.0443 57.4518 67.7785 57.5164 67.5115 57.5C66.5105 57.5 66.0149 56.7689 66.0149 55.6012V53.3539H66.9868V55.5913C66.9868 56.2488 67.2443 56.6364 67.7642 56.6364C68.2842 56.6364 68.7993 56.2586 68.7993 55.1105V53.3539H69.7712L69.7761 57.4117Z" fill="#221F20"/>
<path d="M71.6468 54.2518C71.6866 53.9841 71.8185 53.7391 72.0193 53.5597C72.2201 53.3802 72.477 53.2779 72.745 53.2705C72.8576 53.2721 72.9693 53.292 73.0756 53.3294V54.3107C72.9284 54.2601 72.7741 54.2336 72.6187 54.2322C72.2591 54.2322 71.6468 54.4334 71.6468 55.557V57.4313H70.6749V53.3736H71.6468V54.2518Z" fill="#221F20"/>
<path d="M78.6979 57.4117V55.1399H76.3508V57.4117H75.3303V51.7985H76.3508V54.3254H78.6979V51.7985H79.7135V57.4117H78.6979Z" fill="#221F20"/>
<path d="M82.6 56.6708C82.8527 56.6855 83.104 56.6233 83.3212 56.4922C83.5385 56.361 83.7117 56.167 83.8184 55.9353C83.9252 55.7036 83.9606 55.4448 83.92 55.1926C83.8794 54.9403 83.7647 54.7062 83.5908 54.5205C83.4168 54.3349 83.1917 54.2062 82.9445 54.1513C82.6973 54.0964 82.4394 54.1177 82.2043 54.2124C81.9693 54.3072 81.7678 54.4711 81.6261 54.6828C81.4844 54.8946 81.4089 55.1444 81.4095 55.4C81.403 55.5629 81.4288 55.7254 81.4855 55.8781C81.5422 56.0307 81.6285 56.1703 81.7394 56.2888C81.8503 56.4072 81.9837 56.502 82.1315 56.5676C82.2793 56.6332 82.4386 56.6683 82.6 56.6708ZM82.6 53.2803C83.0118 53.2948 83.4103 53.4312 83.7458 53.6728C84.0813 53.9143 84.3389 54.2502 84.4867 54.6385C84.6345 55.0269 84.6658 55.4506 84.5768 55.8568C84.4877 56.263 84.2823 56.6338 83.9861 56.9229C83.6898 57.212 83.3157 57.4067 82.9106 57.4827C82.5055 57.5587 82.0872 57.5126 81.7078 57.3503C81.3285 57.1879 81.0049 56.9164 80.7772 56.5696C80.5496 56.2228 80.4281 55.816 80.4279 55.4C80.4468 54.8311 80.6839 54.292 81.0893 53.8965C81.4946 53.5009 82.0363 53.28 82.6 53.2803Z" fill="#221F20"/>
<path d="M88.0474 55.1988C88.0474 54.4923 87.7704 54.1243 87.299 54.1243C86.8276 54.1243 86.4195 54.4677 86.3952 55.3607V57.4362H85.4233V53.3785H86.3952V54.0605C86.4936 53.8268 86.6592 53.6284 86.8706 53.4911C87.0821 53.3537 87.3295 53.2837 87.5809 53.2901C87.8418 53.276 88.1009 53.3415 88.3245 53.478C88.5481 53.6145 88.7258 53.8157 88.8347 54.0556C88.9523 53.8089 89.1409 53.6039 89.3759 53.4673C89.6109 53.3307 89.8812 53.269 90.1515 53.2901C91.1915 53.2901 91.6434 54.0212 91.6434 55.1939V57.4362H90.6715V55.1988C90.6715 54.4923 90.3945 54.1243 89.928 54.1243C89.4615 54.1243 89.0436 54.4677 89.0193 55.3607V57.4362H88.0474V55.1988Z" fill="#221F20"/>
<path d="M93.2471 54.8553H95.531C95.469 54.6114 95.3241 54.3971 95.1216 54.2501C94.919 54.103 94.6718 54.0324 94.423 54.0507C94.1666 54.0353 93.9123 54.1059 93.6997 54.2514C93.487 54.3969 93.328 54.6092 93.2471 54.8553ZM96.3522 56.7248C96.1244 56.981 95.8433 57.1834 95.5292 57.3174C95.215 57.4514 94.8755 57.5137 94.5348 57.5C93.0769 57.5 92.2217 56.553 92.2217 55.4C92.2221 55.1123 92.28 54.8277 92.3919 54.5631C92.5038 54.2985 92.6674 54.0595 92.8729 53.8602C93.0784 53.661 93.3216 53.5056 93.5879 53.4034C93.8543 53.3013 94.1383 53.2544 94.423 53.2656C95.5115 53.2656 96.5319 53.9574 96.5319 55.5177H93.1984C93.1984 56.1605 93.7136 56.6659 94.5785 56.6659C95.0315 56.6692 95.4677 56.4931 95.7934 56.1752L96.3522 56.7248Z" fill="#221F20"/>
<path d="M102.728 51.7985V52.6278H101.012V57.4117H99.9967V52.6278H98.2959V51.7985H102.728Z" fill="#221F20"/>
<path d="M104.399 56.6708C104.652 56.6855 104.903 56.6233 105.121 56.4922C105.338 56.361 105.511 56.167 105.618 55.9353C105.725 55.7036 105.76 55.4448 105.719 55.1926C105.679 54.9403 105.564 54.7062 105.39 54.5205C105.216 54.3349 104.991 54.2062 104.744 54.1513C104.497 54.0964 104.239 54.1177 104.004 54.2124C103.769 54.3072 103.567 54.4711 103.426 54.6828C103.284 54.8946 103.208 55.1444 103.209 55.4C103.202 55.5629 103.228 55.7254 103.285 55.8781C103.342 56.0307 103.428 56.1703 103.539 56.2888C103.65 56.4072 103.783 56.502 103.931 56.5676C104.079 56.6332 104.238 56.6683 104.399 56.6708ZM104.399 53.2803C104.811 53.2948 105.21 53.4312 105.545 53.6728C105.881 53.9143 106.138 54.2502 106.286 54.6385C106.434 55.0269 106.465 55.4506 106.376 55.8568C106.287 56.263 106.082 56.6338 105.785 56.9229C105.489 57.212 105.115 57.4067 104.71 57.4827C104.305 57.5587 103.887 57.5126 103.507 57.3503C103.128 57.1879 102.804 56.9164 102.577 56.5696C102.349 56.2228 102.228 55.816 102.227 55.4C102.246 54.8311 102.483 54.292 102.889 53.8965C103.294 53.5009 103.836 53.28 104.399 53.2803Z" fill="#221F20"/>
<path d="M109.409 53.4668H110.148L110.974 56.0722L111.839 53.3539H112.899L111.45 57.4117H110.576L109.784 54.8553L108.982 57.4117H108.117L106.674 53.3539H107.718L108.593 56.0722L109.409 53.4668Z" fill="#221F20"/>
<path d="M113.409 53.3539H114.381V54.0359C114.497 53.7913 114.683 53.5872 114.915 53.45C115.147 53.3128 115.415 53.2486 115.683 53.2656C116.684 53.2656 117.141 53.9967 117.141 55.1645V57.4117H116.169V55.1988C116.169 54.4923 115.877 54.1243 115.391 54.1243C114.823 54.1243 114.361 54.556 114.361 55.4098V57.4362H113.389L113.409 53.3539Z" fill="#221F20"/>
<path d="M121.023 54.9682V56.5923H122.292C122.398 56.6059 122.505 56.5974 122.608 56.5671C122.71 56.5369 122.806 56.4857 122.888 56.4166C122.97 56.3476 123.037 56.2622 123.085 56.1658C123.133 56.0694 123.161 55.964 123.166 55.8563C123.166 55.4049 122.88 54.9682 121.864 54.9682H121.023ZM121.713 54.2224C122.632 54.2224 122.904 53.771 122.904 53.349C122.904 52.9271 122.501 52.6277 122.044 52.6277H121.023V54.2175L121.713 54.2224ZM122.953 54.5266C123.29 54.5568 123.605 54.7116 123.836 54.9615C124.068 55.2115 124.199 55.5388 124.206 55.8808C124.206 56.8033 123.434 57.4117 122.292 57.4117H120.008V51.7985H122.044C123.132 51.7985 123.944 52.3628 123.944 53.2705C123.941 53.5564 123.844 53.8332 123.668 54.0571C123.492 54.281 123.247 54.4393 122.972 54.507" fill="#221F20"/>
<path d="M126.801 56.6708C126.965 56.6768 127.128 56.6479 127.279 56.586C127.431 56.5241 127.568 56.4305 127.681 56.3115C127.794 56.1925 127.881 56.0506 127.937 55.8952C127.992 55.7398 128.014 55.5744 128.002 55.4098C128.016 55.2399 127.995 55.0688 127.939 54.9077C127.884 54.7466 127.796 54.5991 127.68 54.4746C127.565 54.3502 127.425 54.2516 127.269 54.1853C127.114 54.1191 126.946 54.0866 126.777 54.0899C126.616 54.0899 126.456 54.1239 126.308 54.1898C126.16 54.2557 126.028 54.3519 125.919 54.4724C125.81 54.593 125.727 54.7351 125.676 54.8897C125.625 55.0444 125.606 55.2081 125.621 55.3705C125.607 55.5356 125.628 55.7017 125.681 55.8584C125.734 56.0151 125.819 56.159 125.93 56.2811C126.04 56.4032 126.175 56.5009 126.325 56.5679C126.475 56.635 126.637 56.67 126.801 56.6708ZM128.954 53.349V57.4068H127.982V56.7984C127.83 57.0219 127.623 57.203 127.383 57.3248C127.143 57.4465 126.876 57.5051 126.607 57.4951C126.068 57.4689 125.56 57.2344 125.188 56.8402C124.816 56.4461 124.609 55.9224 124.609 55.3779C124.609 54.8334 124.816 54.3098 125.188 53.9156C125.56 53.5214 126.068 53.2869 126.607 53.2607C126.873 53.254 127.137 53.3136 127.375 53.4342C127.614 53.5549 127.819 53.7329 127.973 53.9525V53.349H128.954Z" fill="#221F20"/>
<path d="M129.877 53.3539H130.849V54.0359C130.967 53.7921 131.153 53.5888 131.385 53.4517C131.617 53.3146 131.883 53.2499 132.151 53.2656C133.153 53.2656 133.639 53.9967 133.639 55.1645V57.4117H132.667V55.1988C132.667 54.4923 132.37 54.1243 131.889 54.1243C131.316 54.1243 130.854 54.556 130.854 55.4098V57.4362H129.882L129.877 53.3539Z" fill="#221F20"/>
<path d="M136.715 53.3539H137.793V53.4766L136.399 55.2135L137.001 56.1605C137.205 56.4647 137.337 56.6119 137.628 56.6119C137.801 56.6127 137.97 56.5614 138.114 56.4647L138.464 57.1467C138.199 57.3894 137.85 57.5164 137.492 57.5C137.242 57.4942 136.997 57.4235 136.782 57.2946C136.567 57.1657 136.388 56.983 136.263 56.764L135.451 55.449V57.4117H134.479V51.617H135.451V55.0516L136.715 53.3539Z" fill="#221F20"/>
<path d="M139.543 26.7847C139.135 26.7837 138.736 26.905 138.396 27.1332C138.057 27.3615 137.792 27.6863 137.635 28.0667C137.479 28.447 137.437 28.8657 137.517 29.2697C137.596 29.6737 137.792 30.0449 138.081 30.3361C138.369 30.6274 138.737 30.8256 139.137 30.9057C139.537 30.9858 139.952 30.9442 140.329 30.7862C140.705 30.6281 141.027 30.3607 141.253 30.0178C141.479 29.6749 141.599 29.272 141.598 28.8602C141.597 28.3101 141.38 27.7829 140.995 27.394C140.61 27.005 140.087 26.786 139.543 26.7847ZM139.543 31.495C139.026 31.496 138.521 31.3423 138.092 31.0533C137.662 30.7644 137.327 30.3532 137.128 29.8719C136.93 29.3905 136.878 28.8606 136.978 28.3491C137.078 27.8377 137.326 27.3678 137.691 26.9988C138.056 26.6298 138.521 26.3784 139.027 26.2763C139.533 26.1742 140.058 26.2261 140.535 26.4254C141.012 26.6247 141.42 26.9624 141.707 27.3958C141.994 27.8292 142.147 28.3388 142.147 28.8602C142.147 29.5581 141.873 30.2276 141.385 30.7215C140.896 31.2155 140.234 31.4937 139.543 31.495Z" fill="#221F20"/>
<path d="M139.275 28.6394H139.596C139.665 28.6348 139.733 28.6233 139.8 28.605C139.849 28.5947 139.892 28.5667 139.922 28.5265C139.954 28.4846 139.971 28.4326 139.97 28.3793C139.972 28.3448 139.967 28.3102 139.954 28.2781C139.942 28.2459 139.922 28.2168 139.898 28.1929C139.811 28.1423 139.711 28.12 139.611 28.1291H139.275V28.6394ZM138.503 30.1113V27.609H139.781C139.964 27.6012 140.148 27.6228 140.325 27.6728C140.448 27.7103 140.555 27.7901 140.626 27.8985C140.707 28.0184 140.748 28.161 140.743 28.3057C140.746 28.4308 140.716 28.5544 140.655 28.6639C140.596 28.7652 140.513 28.8496 140.413 28.9092C140.329 28.9555 140.239 28.9886 140.145 29.0074C140.277 29.0371 140.393 29.1182 140.466 29.2331C140.506 29.2819 140.542 29.3345 140.573 29.3901L140.942 30.1113H140.082L139.674 29.3459C139.641 29.2726 139.593 29.2074 139.533 29.1546C139.479 29.1156 139.415 29.095 139.348 29.0957H139.28V30.1113H138.503Z" fill="#221F20"/>
<path d="M38.0033 25.5395L35.1788 28.3567L39.7175 32.9958L42.5419 30.1785L38.0033 25.5395Z" fill="#2B338D"/>
<path d="M19.8577 35.9772L15.3901 40.6861L18.2571 43.4592L22.7246 38.7503L19.8577 35.9772Z" fill="#2B338D"/>
<path d="M29.5334 5.5298L25.0651 10.2379L27.9315 13.0115L32.3999 8.30337L29.5334 5.5298Z" fill="#2B338D"/>
<path d="M8.26421 16.0587L5.43933 18.8753L9.97717 23.5152L12.802 20.6985L8.26421 16.0587Z" fill="#2B338D"/>
<path d="M32.2126 29.8415L42.7867 18.9488L39.769 15.9656L24.8555 31.3282L27.8732 34.3114L29.2581 32.8836L45.0367 48.5062L47.996 45.4592L32.2126 29.8415Z" fill="#2B338D"/>
<path d="M33.4372 20.6024L32.3098 19.4886L47.8454 3.48812L44.8277 0.5L29.2921 16.5004L18.2223 5.54399L15.2629 8.58608L30.4778 23.6494L33.4372 20.6024Z" fill="#2B338D"/>
<path d="M14.9374 28.6933L15.9044 29.6501L0.665283 45.3463L3.68299 48.3345L18.9221 32.6382L30.1523 43.7566L33.1117 40.7096L17.8968 25.6512L14.9374 28.6933Z" fill="#2B338D"/>
<path d="M5.15537 30.2389L8.17307 33.227L23.0866 17.8645L20.0738 14.8763L18.927 16.0539L3.3671 0.652105L0.407715 3.69911L15.9676 19.1009L5.15537 30.2389Z" fill="#2B338D"/>
<path d="M70.5388 2.8748V8.23771H70.0529C69.8728 7.30111 69.5446 6.39987 69.081 5.56852C68.7137 5.01834 68.2115 4.57373 67.6232 4.27808C67.0492 4.06206 66.4364 3.97174 65.8252 4.01313H64.4597V19.2923C64.421 19.9292 64.4717 20.5685 64.6104 21.1911C64.7412 21.4722 64.9551 21.7053 65.2227 21.8584C65.6022 22.0658 66.0308 22.1643 66.4618 22.143H67.0693V22.6828H57.4719V22.143H58.0842C58.5321 22.1637 58.9767 22.0566 59.367 21.8339C59.6253 21.6704 59.8208 21.4229 59.9211 21.1323C60.0612 20.5298 60.112 19.9098 60.0717 19.2923V4.01313H58.7451C57.506 4.01313 56.6118 4.29771 56.053 4.86197C55.2022 5.79138 54.678 6.97763 54.5611 8.23771H54.0703V2.8748H70.5388Z" fill="#221F20"/>
<path d="M79.3053 3.93953V12.6193H80.078C81.0304 12.6643 81.9831 12.538 82.8916 12.2464C83.5176 11.9831 84.0332 11.5077 84.3495 10.902C84.7357 10.1169 84.9195 9.24609 84.8839 8.37019C84.8839 6.85896 84.5535 5.74516 83.9121 5.02389C83.2706 4.30262 82.2015 3.93953 80.7486 3.93953H79.3053ZM79.3053 13.6546V19.204C79.2617 19.885 79.3241 20.5688 79.49 21.2304C79.6238 21.5179 79.8497 21.7514 80.1314 21.8928C80.6801 22.101 81.2671 22.1864 81.8517 22.143V22.6828H72.4536V22.143C73.0402 22.1868 73.6291 22.0997 74.1786 21.8879C74.4584 21.7431 74.6824 21.5083 74.8152 21.2206C74.9822 20.5625 75.0446 19.8818 74.9999 19.204V6.35357C75.0436 5.67251 74.9812 4.98875 74.8152 4.32715C74.6815 4.03963 74.4556 3.80619 74.1739 3.66476C73.6252 3.45657 73.0382 3.37119 72.4536 3.41452V2.8748H80.9818C83.2026 2.8748 84.8305 3.04162 85.8412 3.36546C86.856 3.68635 87.7408 4.33008 88.3634 5.20052C89.0169 6.11086 89.3581 7.21175 89.3352 8.33584C89.3557 9.00868 89.2366 9.6784 88.9855 10.302C88.7344 10.9256 88.357 11.4893 87.8774 11.9569C87.1346 12.6243 86.237 13.0917 85.2679 13.316L89.6802 20.0185C90.0351 20.6 90.447 21.1441 90.9097 21.6425C91.2773 21.9385 91.7278 22.1102 92.1974 22.1332V22.6729H86.4147L80.5007 13.6448L79.3053 13.6546Z" fill="#221F20"/>
<path d="M91.0894 2.8748H100.565V3.41452H100.079C99.5809 3.37722 99.0809 3.46136 98.6215 3.65985C98.362 3.80787 98.1612 4.04187 98.0529 4.32224C97.8987 5.01733 97.8414 5.73079 97.8828 6.44189V16.1373C97.8828 17.9086 98.0092 19.0813 98.257 19.6603C98.5164 20.248 98.9425 20.7449 99.4816 21.0881C100.126 21.4919 100.876 21.6918 101.634 21.6622C102.534 21.6894 103.42 21.4358 104.171 20.936C104.88 20.4444 105.428 19.7509 105.745 18.9439C106.092 18.0934 106.265 16.6215 106.265 14.528V6.44189C106.302 5.79808 106.215 5.15319 106.008 4.54304C105.882 4.21512 105.653 3.93774 105.357 3.75308C104.82 3.4987 104.229 3.3824 103.636 3.41452V2.8748H109.988V3.41452H109.609C109.156 3.39787 108.708 3.51557 108.321 3.75308C107.972 3.98818 107.711 4.33328 107.577 4.7344C107.432 5.28271 107.373 5.85059 107.402 6.41736V13.9833C107.464 15.6744 107.321 17.3667 106.975 19.0224C106.607 20.1732 105.879 21.172 104.9 21.8683C103.795 22.7384 102.292 23.1718 100.39 23.1685C99.1261 23.2356 97.864 23.0003 96.7069 22.4816C95.641 21.9717 94.7631 21.1333 94.1995 20.0872C93.6617 18.8525 93.4123 17.5094 93.4705 16.1619V6.44189C93.5148 5.72726 93.4558 5.00993 93.2956 4.31243C93.1709 4.02851 92.9552 3.79519 92.6833 3.65004C92.178 3.44492 91.6316 3.36419 91.0894 3.41452V2.8748Z" fill="#221F20"/>
<path d="M122.681 2.42339L122.831 9.02277H122.277C122.082 7.51184 121.399 6.10807 120.333 5.02879C119.907 4.56649 119.393 4.19472 118.822 3.93524C118.252 3.67576 117.635 3.53376 117.01 3.51756C116.611 3.49588 116.212 3.55504 115.836 3.69157C115.461 3.82809 115.116 4.0392 114.823 4.31243C114.57 4.54531 114.368 4.82864 114.229 5.14451C114.09 5.46038 114.018 5.80191 114.016 6.1475C114.009 6.55533 114.108 6.95789 114.303 7.31527C114.628 7.84855 115.056 8.31066 115.561 8.6744C116.497 9.30446 117.471 9.87475 118.477 10.3819C120.625 11.5202 122.075 12.5964 122.826 13.6104C123.562 14.6166 123.952 15.8385 123.934 17.0892C123.942 17.8878 123.787 18.6794 123.479 19.4147C123.17 20.15 122.715 20.8132 122.141 21.3629C121.54 21.9563 120.827 22.4205 120.043 22.7275C119.26 23.0344 118.423 23.1778 117.583 23.1489C117.031 23.1519 116.482 23.0877 115.945 22.9575C115.278 22.7792 114.627 22.5411 114.002 22.2461C113.669 22.0762 113.305 21.9761 112.932 21.9517C112.66 21.9657 112.399 22.069 112.189 22.2461C111.899 22.476 111.678 22.7837 111.552 23.1342H111.067V15.6565H111.552C111.948 17.7631 112.712 19.3675 113.846 20.4699C114.317 20.9769 114.883 21.3846 115.511 21.6693C116.139 21.954 116.817 22.11 117.505 22.1283C117.949 22.1512 118.392 22.0839 118.81 21.9305C119.227 21.7771 119.61 21.5407 119.935 21.2353C120.218 20.9707 120.445 20.6497 120.599 20.2925C120.754 19.9353 120.834 19.5497 120.834 19.1598C120.831 18.6866 120.713 18.2214 120.489 17.8056C120.226 17.3218 119.869 16.8963 119.439 16.5544C118.658 15.9638 117.823 15.448 116.946 15.0137C115.676 14.3806 114.47 13.6229 113.346 12.7518C112.652 12.1755 112.081 11.4647 111.664 10.6616C111.266 9.87537 111.062 9.00315 111.071 8.11995C111.058 7.37274 111.194 6.63051 111.472 5.93756C111.749 5.24461 112.161 4.61515 112.685 4.08673C113.211 3.53999 113.843 3.10975 114.543 2.82338C115.242 2.53702 115.993 2.4008 116.747 2.42339C117.332 2.42218 117.914 2.50141 118.477 2.6589C119.015 2.81977 119.534 3.03684 120.027 3.30657C120.419 3.55424 120.855 3.72101 121.31 3.79723C121.414 3.802 121.518 3.78334 121.613 3.7426C121.709 3.70186 121.795 3.64007 121.864 3.56172C122.069 3.21901 122.198 2.83578 122.243 2.43811L122.681 2.42339Z" fill="#221F20"/>
<path d="M142.41 2.8748V8.23771H141.924C141.742 7.30166 141.414 6.40072 140.952 5.56852C140.585 5.01789 140.083 4.57316 139.494 4.27808C138.918 4.0621 138.304 3.97179 137.691 4.01313H136.326V19.2923C136.288 19.9295 136.34 20.5689 136.481 21.1911C136.609 21.4725 136.822 21.7061 137.089 21.8584C137.469 22.0647 137.897 22.163 138.328 22.143H138.94V22.6828H129.328V22.143H129.936C130.385 22.1641 130.831 22.057 131.223 21.8339C131.48 21.6689 131.675 21.422 131.777 21.1323C131.915 20.5294 131.966 19.9097 131.928 19.2923V4.01313H130.601C129.361 4.01313 128.462 4.29608 127.904 4.86197C127.053 5.79062 126.53 6.97757 126.417 8.23771H125.902V2.8748H142.41Z" fill="#221F20"/>
<path d="M161.036 2.42339V9.29263H160.492C160.213 7.71464 159.436 6.27027 158.276 5.17599C157.269 4.24984 155.955 3.7386 154.592 3.74326C153.454 3.73893 152.346 4.1131 151.439 4.808C150.486 5.51402 149.757 6.48381 149.339 7.59985C148.752 9.16687 148.462 10.8313 148.484 12.5065C148.467 14.1421 148.676 15.7721 149.106 17.3493C149.411 18.622 150.089 19.7725 151.05 20.6514C152.027 21.4245 153.245 21.8195 154.485 21.7652C155.597 21.7777 156.692 21.4969 157.663 20.9507C158.84 20.2077 159.869 19.2511 160.701 18.1294V19.8369C159.811 20.8914 158.716 21.7498 157.484 22.3589C156.259 22.9001 154.933 23.1662 153.596 23.1391C151.777 23.175 149.98 22.7373 148.377 21.8683C146.869 21.0332 145.642 19.7619 144.854 18.2177C144.034 16.6569 143.609 14.9159 143.615 13.1492C143.611 11.2613 144.085 9.40375 144.99 7.75196C145.85 6.1276 147.132 4.77054 148.698 3.82668C150.201 2.90326 151.929 2.41761 153.689 2.42339C155.098 2.44757 156.489 2.75445 157.78 3.3262C158.281 3.57738 158.814 3.75578 159.364 3.85612C159.507 3.85537 159.647 3.82441 159.777 3.76524C159.907 3.70607 160.023 3.62002 160.118 3.51266C160.36 3.19963 160.502 2.81982 160.526 2.42339H161.036Z" fill="#221F20"/>
<path d="M172.699 3.53228C171.024 3.53228 169.747 4.45799 168.869 6.30942C168.144 7.82719 167.781 10.0074 167.781 12.8499C167.781 16.2322 168.332 18.7313 169.433 20.3472C170.043 21.217 170.968 21.8082 172.008 21.992C173.047 22.1758 174.116 21.9373 174.983 21.3285C175.882 20.5412 176.528 19.5008 176.839 18.3404C177.331 16.5944 177.554 14.7822 177.5 12.9677C177.5 10.3508 177.275 8.38818 176.824 7.07975C176.525 6.01317 175.926 5.05707 175.099 4.32715C174.402 3.78995 173.546 3.50638 172.669 3.52247M172.509 2.59021C175.425 2.47245 177.801 3.39162 179.638 5.34772C181.479 7.33878 182.464 9.98498 182.379 12.7076C182.422 15.0821 181.704 17.4071 180.333 19.3364C178.528 21.8683 175.979 23.1342 172.684 23.1342C169.389 23.1342 166.835 21.9271 165.021 19.5131C163.579 17.5529 162.827 15.1631 162.883 12.7223C162.842 11.3706 163.067 10.0241 163.545 8.76075C164.023 7.49741 164.744 6.34235 165.667 5.36244C166.53 4.41444 167.593 3.67379 168.777 3.1949C169.961 2.71602 171.236 2.51107 172.509 2.59512" fill="#221F20"/>
<path d="M63.4344 34.9836C64.4204 35.0335 65.4054 34.866 66.3209 34.4929C66.9136 34.2108 67.4094 33.7563 67.7447 33.1878C68.0973 32.5294 68.2654 31.7864 68.2306 31.0387C68.2613 30.293 68.0935 29.5525 67.7447 28.8945C67.4174 28.3367 66.9291 27.8933 66.3452 27.6237C65.4128 27.2805 64.4199 27.1368 63.4295 27.2017L63.4344 34.9836ZM63.4344 36.117V42.4416V43.1678C63.4031 43.5968 63.5392 44.0212 63.8135 44.3503C63.9632 44.4916 64.1401 44.6003 64.3332 44.6695C64.5263 44.7387 64.7316 44.767 64.936 44.7526C65.6435 44.7668 66.3427 44.5979 66.9672 44.262C67.5832 43.9216 68.0816 43.3995 68.3959 42.7655C68.7283 42.0856 68.895 41.3353 68.8818 40.5771C68.8909 39.7203 68.6817 38.8755 68.2744 38.1238C67.9142 37.4316 67.3241 36.8896 66.6076 36.593C65.5864 36.2559 64.5121 36.1129 63.4393 36.171M68.4542 35.4301C70.2263 35.8684 71.4719 36.3967 72.1911 37.0149C72.6903 37.4308 73.0886 37.9566 73.3557 38.5519C73.6227 39.1472 73.7512 39.7963 73.7315 40.4496C73.7451 41.1522 73.5994 41.8486 73.3055 42.4856C73.0115 43.1225 72.5771 43.6832 72.0356 44.1246C70.6522 45.2956 68.6372 45.8828 65.9905 45.8861H56.5V45.3463C57.0962 45.3927 57.6953 45.3056 58.2543 45.0912C58.5373 44.9506 58.7662 44.7194 58.9054 44.4337C59.0719 43.7789 59.1343 43.1015 59.0901 42.4269V29.5814C59.1337 28.9052 59.0713 28.2263 58.9054 27.5697C58.7658 27.2814 58.535 27.0483 58.2494 26.9073C57.6895 26.7037 57.0937 26.6201 56.5 26.662V26.1223H65.4559C67.594 26.1223 69.1102 26.3234 70.0044 26.7258C70.8672 27.104 71.6006 27.7303 72.1133 28.5265C72.6114 29.2826 72.8784 30.1699 72.8811 31.0779C72.8857 32.0156 72.5384 32.9202 71.9092 33.6098C71.2613 34.349 70.1129 34.9378 68.464 35.3761" fill="#221F20"/>
<path d="M84.5778 39.1395L81.7934 32.3537L78.9311 39.1395H84.5778ZM85.0638 40.214H78.4598L77.6775 42.1325C77.452 42.6303 77.3202 43.166 77.2887 43.7124C77.2739 43.9554 77.3253 44.1978 77.4376 44.4133C77.5498 44.6287 77.7186 44.8089 77.9253 44.9342C78.5097 45.1626 79.1307 45.2807 79.7573 45.2826V45.8223H73.5081V45.2826C74.1441 45.1957 74.7293 44.8846 75.1602 44.4043C75.8324 43.498 76.371 42.4981 76.759 41.4358L83.4456 25.7347H83.7031L90.4432 41.8872C91.0911 43.4181 91.6192 44.383 92.0274 44.7821C92.3955 45.104 92.8624 45.2877 93.3491 45.3022V45.8419H84.3105V45.3022H84.6847C85.2147 45.3467 85.7462 45.236 86.2154 44.9833C86.315 44.9046 86.3944 44.8029 86.4469 44.6868C86.4993 44.5706 86.5233 44.4434 86.5167 44.316C86.5147 44.133 86.4869 43.9513 86.4342 43.7762C86.4342 43.6928 86.2786 43.3248 86.0211 42.687L85.0638 40.214Z" fill="#221F20"/>
<path d="M101.795 26.1223L111.028 38.3397V29.8709C111.028 28.6884 110.862 27.9083 110.542 27.4765C110.104 26.9122 109.361 26.6424 108.326 26.662V26.1223H114.497V26.662C113.947 26.6995 113.408 26.8392 112.908 27.0742C112.613 27.2737 112.389 27.5647 112.272 27.9034C112.087 28.5399 112.009 29.2035 112.043 29.866V46.2688H111.557L98.9228 29.8709V42.3926C98.9228 43.526 99.1658 44.2914 99.6615 44.6889C100.137 45.0801 100.734 45.2902 101.348 45.2826H101.79V45.8223H95.1616V45.2826C96.187 45.2826 96.9061 45.0519 97.3094 44.6153C97.7128 44.1786 97.9169 43.4377 97.9169 42.3926V28.4922L97.5184 27.9672C97.2385 27.5578 96.882 27.2077 96.4688 26.9368C96.059 26.7471 95.6123 26.6532 95.1616 26.662V26.1223H101.795Z" fill="#221F20"/>
<path d="M127.229 33.6637L133.804 42.3337C134.464 43.2866 135.273 44.125 136.199 44.8164C136.658 45.1207 137.196 45.2828 137.745 45.2826V45.8223H128.026V45.2826C128.441 45.282 128.85 45.1774 129.216 44.9783C129.3 44.9162 129.368 44.8348 129.414 44.741C129.461 44.6472 129.485 44.5435 129.484 44.4386C129.484 44.0314 129.061 43.2708 128.22 42.1472L123.934 36.4654L123.244 37.0787V42.476C123.202 43.1202 123.258 43.7672 123.409 44.3945C123.546 44.672 123.767 44.8976 124.041 45.0372C124.512 45.2493 125.028 45.3419 125.543 45.3071V45.8468H116.12V45.3071H116.757C117.212 45.3272 117.664 45.222 118.064 45.0029C118.322 44.8428 118.517 44.5962 118.613 44.3061C118.753 43.7069 118.803 43.0902 118.764 42.476V29.4931C118.802 28.8594 118.751 28.2235 118.613 27.6041C118.488 27.3218 118.272 27.0902 118.001 26.9466C117.62 26.7381 117.19 26.6396 116.757 26.662H116.135V26.1223H125.436V26.662C124.933 26.6315 124.432 26.7312 123.978 26.9515C123.721 27.1098 123.522 27.3496 123.414 27.6335C123.262 28.2407 123.206 28.8683 123.249 29.4931V35.6215L130.179 29.7335C131.151 28.9125 131.636 28.2583 131.636 27.7709C131.631 27.5833 131.572 27.4013 131.467 27.2465C131.362 27.0917 131.215 26.9706 131.044 26.8975C130.557 26.7491 130.05 26.6812 129.542 26.6964V26.1566H136.831V26.6964C136.3 26.7148 135.778 26.8399 135.296 27.0643C134.391 27.6701 133.532 28.3425 132.725 29.076L127.229 33.6637Z" fill="#221F20"/>
</g>
<defs>
<clipPath id="clip0_678_1581">
<rect width="182" height="57" fill="white" transform="translate(0.407715 0.5)"/>
</clipPath>
</defs>
</svg>
